<svg xmlns="http://www.w3.org/2000/svg" width="1600" height="1040" viewBox="0 0 1600 1040">
<rect width="1600" height="1040" fill="#F7F9FC"/>
<g font-family="Hiragino Sans, Noto Sans CJK JP, sans-serif">
<text x="90" y="72" font-size="22" fill="#62748B" font-weight="600" text-anchor="start">お金の授業  /  複利</text>
<text x="90" y="135" font-size="42" fill="#24354B" font-weight="700" text-anchor="start">積み立てたお金 ＋ 増えたお金も、運用される。</text>
<text x="90" y="185" font-size="27" fill="#24354B" font-weight="400" text-anchor="start">毎月3万円 × 年率5%を仮定したシミュレーション</text>
<rect x="90" y="220" width="450" height="170" rx="18" fill="white" stroke="#E0E6EE"/>
<text x="116" y="259" font-size="24" fill="#62748B" font-weight="600" text-anchor="start">10年後</text>
<text x="116" y="311" font-size="40" fill="#24354B" font-weight="700" text-anchor="start">約466万円</text>
<text x="116" y="353" font-size="23" fill="#24354B" font-weight="400" text-anchor="start">元本 360万 ＋ 運用益 106万</text>
<rect x="575" y="220" width="450" height="170" rx="18" fill="white" stroke="#E0E6EE"/>
<text x="601" y="259" font-size="24" fill="#62748B" font-weight="600" text-anchor="start">20年後</text>
<text x="601" y="311" font-size="40" fill="#24354B" font-weight="700" text-anchor="start">約1,233万円</text>
<text x="601" y="353" font-size="23" fill="#24354B" font-weight="400" text-anchor="start">元本 720万 ＋ 運用益 513万</text>
<rect x="1060" y="220" width="450" height="170" rx="18" fill="white" stroke="#E0E6EE"/>
<text x="1086" y="259" font-size="24" fill="#62748B" font-weight="600" text-anchor="start">30年後</text>
<text x="1086" y="311" font-size="40" fill="#24354B" font-weight="700" text-anchor="start">約2,497万円</text>
<text x="1086" y="353" font-size="23" fill="#24354B" font-weight="400" text-anchor="start">元本 1,080万 ＋ 運用益 1,417万</text>
<path d="M 160 855.0 H 1500" stroke="#DEE5EF"/>
<text x="140" y="863.0" font-size="20" fill="#62748B" font-weight="400" text-anchor="end">0</text>
<path d="M 160 788.3333333333334 H 1500" stroke="#DEE5EF"/>
<text x="140" y="796.3333333333334" font-size="20" fill="#62748B" font-weight="400" text-anchor="end">500</text>
<path d="M 160 721.6666666666666 H 1500" stroke="#DEE5EF"/>
<text x="140" y="729.6666666666666" font-size="20" fill="#62748B" font-weight="400" text-anchor="end">1,000</text>
<path d="M 160 655.0 H 1500" stroke="#DEE5EF"/>
<text x="140" y="663.0" font-size="20" fill="#62748B" font-weight="400" text-anchor="end">1,500</text>
<path d="M 160 588.3333333333333 H 1500" stroke="#DEE5EF"/>
<text x="140" y="596.3333333333333" font-size="20" fill="#62748B" font-weight="400" text-anchor="end">2,000</text>
<path d="M 160 521.6666666666667 H 1500" stroke="#DEE5EF"/>
<text x="140" y="529.6666666666667" font-size="20" fill="#62748B" font-weight="400" text-anchor="end">2,500</text>
<path d="M 160 455.0 H 1500" stroke="#DEE5EF"/>
<text x="140" y="463.0" font-size="20" fill="#62748B" font-weight="400" text-anchor="end">3,000</text>
<text x="140" y="431" font-size="20" fill="#62748B" font-weight="400" text-anchor="end">万円</text>
<polygon points="160.00,855.00 160.00,855.00 163.72,854.60 167.44,854.20 171.17,853.80 174.89,853.40 178.61,853.00 182.33,852.60 186.06,852.20 189.78,851.80 193.50,851.40 197.22,851.00 200.94,850.60 204.67,850.20 208.39,849.80 212.11,849.40 215.83,849.00 219.56,848.60 223.28,848.20 227.00,847.80 230.72,847.40 234.44,847.00 238.17,846.60 241.89,846.20 245.61,845.80 249.33,845.40 253.06,845.00 256.78,844.60 260.50,844.20 264.22,843.80 267.94,843.40 271.67,843.00 275.39,842.60 279.11,842.20 282.83,841.80 286.56,841.40 290.28,841.00 294.00,840.60 297.72,840.20 301.44,839.80 305.17,839.40 308.89,839.00 312.61,838.60 316.33,838.20 320.06,837.80 323.78,837.40 327.50,837.00 331.22,836.60 334.94,836.20 338.67,835.80 342.39,835.40 346.11,835.00 349.83,834.60 353.56,834.20 357.28,833.80 361.00,833.40 364.72,833.00 368.44,832.60 372.17,832.20 375.89,831.80 379.61,831.40 383.33,831.00 387.06,830.60 390.78,830.20 394.50,829.80 398.22,829.40 401.94,829.00 405.67,828.60 409.39,828.20 413.11,827.80 416.83,827.40 420.56,827.00 424.28,826.60 428.00,826.20 431.72,825.80 435.44,825.40 439.17,825.00 442.89,824.60 446.61,824.20 450.33,823.80 454.06,823.40 457.78,823.00 461.50,822.60 465.22,822.20 468.94,821.80 472.67,821.40 476.39,821.00 480.11,820.60 483.83,820.20 487.56,819.80 491.28,819.40 495.00,819.00 498.72,818.60 502.44,818.20 506.17,817.80 509.89,817.40 513.61,817.00 517.33,816.60 521.06,816.20 524.78,815.80 528.50,815.40 532.22,815.00 535.94,814.60 539.67,814.20 543.39,813.80 547.11,813.40 550.83,813.00 554.56,812.60 558.28,812.20 562.00,811.80 565.72,811.40 569.44,811.00 573.17,810.60 576.89,810.20 580.61,809.80 584.33,809.40 588.06,809.00 591.78,808.60 595.50,808.20 599.22,807.80 602.94,807.40 606.67,807.00 610.39,806.60 614.11,806.20 617.83,805.80 621.56,805.40 625.28,805.00 629.00,804.60 632.72,804.20 636.44,803.80 640.17,803.40 643.89,803.00 647.61,802.60 651.33,802.20 655.06,801.80 658.78,801.40 662.50,801.00 666.22,800.60 669.94,800.20 673.67,799.80 677.39,799.40 681.11,799.00 684.83,798.60 688.56,798.20 692.28,797.80 696.00,797.40 699.72,797.00 703.44,796.60 707.17,796.20 710.89,795.80 714.61,795.40 718.33,795.00 722.06,794.60 725.78,794.20 729.50,793.80 733.22,793.40 736.94,793.00 740.67,792.60 744.39,792.20 748.11,791.80 751.83,791.40 755.56,791.00 759.28,790.60 763.00,790.20 766.72,789.80 770.44,789.40 774.17,789.00 777.89,788.60 781.61,788.20 785.33,787.80 789.06,787.40 792.78,787.00 796.50,786.60 800.22,786.20 803.94,785.80 807.67,785.40 811.39,785.00 815.11,784.60 818.83,784.20 822.56,783.80 826.28,783.40 830.00,783.00 833.72,782.60 837.44,782.20 841.17,781.80 844.89,781.40 848.61,781.00 852.33,780.60 856.06,780.20 859.78,779.80 863.50,779.40 867.22,779.00 870.94,778.60 874.67,778.20 878.39,777.80 882.11,777.40 885.83,777.00 889.56,776.60 893.28,776.20 897.00,775.80 900.72,775.40 904.44,775.00 908.17,774.60 911.89,774.20 915.61,773.80 919.33,773.40 923.06,773.00 926.78,772.60 930.50,772.20 934.22,771.80 937.94,771.40 941.67,771.00 945.39,770.60 949.11,770.20 952.83,769.80 956.56,769.40 960.28,769.00 964.00,768.60 967.72,768.20 971.44,767.80 975.17,767.40 978.89,767.00 982.61,766.60 986.33,766.20 990.06,765.80 993.78,765.40 997.50,765.00 1001.22,764.60 1004.94,764.20 1008.67,763.80 1012.39,763.40 1016.11,763.00 1019.83,762.60 1023.56,762.20 1027.28,761.80 1031.00,761.40 1034.72,761.00 1038.44,760.60 1042.17,760.20 1045.89,759.80 1049.61,759.40 1053.33,759.00 1057.06,758.60 1060.78,758.20 1064.50,757.80 1068.22,757.40 1071.94,757.00 1075.67,756.60 1079.39,756.20 1083.11,755.80 1086.83,755.40 1090.56,755.00 1094.28,754.60 1098.00,754.20 1101.72,753.80 1105.44,753.40 1109.17,753.00 1112.89,752.60 1116.61,752.20 1120.33,751.80 1124.06,751.40 1127.78,751.00 1131.50,750.60 1135.22,750.20 1138.94,749.80 1142.67,749.40 1146.39,749.00 1150.11,748.60 1153.83,748.20 1157.56,747.80 1161.28,747.40 1165.00,747.00 1168.72,746.60 1172.44,746.20 1176.17,745.80 1179.89,745.40 1183.61,745.00 1187.33,744.60 1191.06,744.20 1194.78,743.80 1198.50,743.40 1202.22,743.00 1205.94,742.60 1209.67,742.20 1213.39,741.80 1217.11,741.40 1220.83,741.00 1224.56,740.60 1228.28,740.20 1232.00,739.80 1235.72,739.40 1239.44,739.00 1243.17,738.60 1246.89,738.20 1250.61,737.80 1254.33,737.40 1258.06,737.00 1261.78,736.60 1265.50,736.20 1269.22,735.80 1272.94,735.40 1276.67,735.00 1280.39,734.60 1284.11,734.20 1287.83,733.80 1291.56,733.40 1295.28,733.00 1299.00,732.60 1302.72,732.20 1306.44,731.80 1310.17,731.40 1313.89,731.00 1317.61,730.60 1321.33,730.20 1325.06,729.80 1328.78,729.40 1332.50,729.00 1336.22,728.60 1339.94,728.20 1343.67,727.80 1347.39,727.40 1351.11,727.00 1354.83,726.60 1358.56,726.20 1362.28,725.80 1366.00,725.40 1369.72,725.00 1373.44,724.60 1377.17,724.20 1380.89,723.80 1384.61,723.40 1388.33,723.00 1392.06,722.60 1395.78,722.20 1399.50,721.80 1403.22,721.40 1406.94,721.00 1410.67,720.60 1414.39,720.20 1418.11,719.80 1421.83,719.40 1425.56,719.00 1429.28,718.60 1433.00,718.20 1436.72,717.80 1440.44,717.40 1444.17,717.00 1447.89,716.60 1451.61,716.20 1455.33,715.80 1459.06,715.40 1462.78,715.00 1466.50,714.60 1470.22,714.20 1473.94,713.80 1477.67,713.40 1481.39,713.00 1485.11,712.60 1488.83,712.20 1492.56,711.80 1496.28,711.40 1500.00,711.00 1500.00,855.00" fill="#BCD0EC"/>
<polygon points="160.00,855.00 163.72,854.60 167.44,854.20 171.17,853.79 174.89,853.39 178.61,852.98 182.33,852.57 186.06,852.16 189.78,851.75 193.50,851.34 197.22,850.92 200.94,850.51 204.67,850.09 208.39,849.67 212.11,849.25 215.83,848.82 219.56,848.40 223.28,847.97 227.00,847.54 230.72,847.11 234.44,846.68 238.17,846.24 241.89,845.80 245.61,845.37 249.33,844.93 253.06,844.48 256.78,844.04 260.50,843.59 264.22,843.15 267.94,842.70 271.67,842.25 275.39,841.79 279.11,841.34 282.83,840.88 286.56,840.42 290.28,839.96 294.00,839.50 297.72,839.03 301.44,838.57 305.17,838.10 308.89,837.63 312.61,837.16 316.33,836.68 320.06,836.21 323.78,835.73 327.50,835.25 331.22,834.76 334.94,834.28 338.67,833.79 342.39,833.31 346.11,832.82 349.83,832.32 353.56,831.83 357.28,831.33 361.00,830.83 364.72,830.33 368.44,829.83 372.17,829.32 375.89,828.82 379.61,828.31 383.33,827.80 387.06,827.28 390.78,826.77 394.50,826.25 398.22,825.73 401.94,825.21 405.67,824.69 409.39,824.16 413.11,823.63 416.83,823.10 420.56,822.57 424.28,822.03 428.00,821.49 431.72,820.95 435.44,820.41 439.17,819.87 442.89,819.32 446.61,818.77 450.33,818.22 454.06,817.67 457.78,817.11 461.50,816.56 465.22,816.00 468.94,815.43 472.67,814.87 476.39,814.30 480.11,813.73 483.83,813.16 487.56,812.59 491.28,812.01 495.00,811.43 498.72,810.85 502.44,810.26 506.17,809.68 509.89,809.09 513.61,808.50 517.33,807.90 521.06,807.31 524.78,806.71 528.50,806.11 532.22,805.50 535.94,804.90 539.67,804.29 543.39,803.68 547.11,803.06 550.83,802.45 554.56,801.83 558.28,801.21 562.00,800.58 565.72,799.96 569.44,799.33 573.17,798.69 576.89,798.06 580.61,797.42 584.33,796.78 588.06,796.14 591.78,795.50 595.50,794.85 599.22,794.20 602.94,793.54 606.67,792.89 610.39,792.23 614.11,791.57 617.83,790.90 621.56,790.24 625.28,789.57 629.00,788.89 632.72,788.22 636.44,787.54 640.17,786.86 643.89,786.17 647.61,785.49 651.33,784.80 655.06,784.11 658.78,783.41 662.50,782.71 666.22,782.01 669.94,781.31 673.67,780.60 677.39,779.89 681.11,779.18 684.83,778.46 688.56,777.74 692.28,777.02 696.00,776.29 699.72,775.57 703.44,774.84 707.17,774.10 710.89,773.36 714.61,772.62 718.33,771.88 722.06,771.13 725.78,770.39 729.50,769.63 733.22,768.88 736.94,768.12 740.67,767.36 744.39,766.59 748.11,765.82 751.83,765.05 755.56,764.28 759.28,763.50 763.00,762.72 766.72,761.93 770.44,761.14 774.17,760.35 777.89,759.56 781.61,758.76 785.33,757.96 789.06,757.16 792.78,756.35 796.50,755.54 800.22,754.72 803.94,753.91 807.67,753.08 811.39,752.26 815.11,751.43 818.83,750.60 822.56,749.76 826.28,748.93 830.00,748.08 833.72,747.24 837.44,746.39 841.17,745.54 844.89,744.68 848.61,743.82 852.33,742.96 856.06,742.09 859.78,741.22 863.50,740.35 867.22,739.47 870.94,738.59 874.67,737.70 878.39,736.81 882.11,735.92 885.83,735.03 889.56,734.13 893.28,733.22 897.00,732.31 900.72,731.40 904.44,730.49 908.17,729.57 911.89,728.65 915.61,727.72 919.33,726.79 923.06,725.86 926.78,724.92 930.50,723.98 934.22,723.03 937.94,722.08 941.67,721.13 945.39,720.17 949.11,719.21 952.83,718.24 956.56,717.27 960.28,716.30 964.00,715.32 967.72,714.34 971.44,713.35 975.17,712.36 978.89,711.37 982.61,710.37 986.33,709.37 990.06,708.36 993.78,707.35 997.50,706.33 1001.22,705.31 1004.94,704.29 1008.67,703.26 1012.39,702.23 1016.11,701.19 1019.83,700.15 1023.56,699.11 1027.28,698.06 1031.00,697.00 1034.72,695.94 1038.44,694.88 1042.17,693.81 1045.89,692.74 1049.61,691.67 1053.33,690.59 1057.06,689.50 1060.78,688.41 1064.50,687.32 1068.22,686.22 1071.94,685.12 1075.67,684.01 1079.39,682.90 1083.11,681.78 1086.83,680.66 1090.56,679.53 1094.28,678.40 1098.00,677.26 1101.72,676.12 1105.44,674.98 1109.17,673.83 1112.89,672.67 1116.61,671.51 1120.33,670.35 1124.06,669.18 1127.78,668.00 1131.50,666.83 1135.22,665.64 1138.94,664.45 1142.67,663.26 1146.39,662.06 1150.11,660.86 1153.83,659.65 1157.56,658.43 1161.28,657.21 1165.00,655.99 1168.72,654.76 1172.44,653.53 1176.17,652.29 1179.89,651.04 1183.61,649.79 1187.33,648.54 1191.06,647.28 1194.78,646.01 1198.50,644.74 1202.22,643.46 1205.94,642.18 1209.67,640.90 1213.39,639.60 1217.11,638.31 1220.83,637.00 1224.56,635.70 1228.28,634.38 1232.00,633.06 1235.72,631.74 1239.44,630.41 1243.17,629.07 1246.89,627.73 1250.61,626.38 1254.33,625.03 1258.06,623.67 1261.78,622.31 1265.50,620.94 1269.22,619.56 1272.94,618.18 1276.67,616.80 1280.39,615.40 1284.11,614.01 1287.83,612.60 1291.56,611.19 1295.28,609.78 1299.00,608.35 1302.72,606.93 1306.44,605.49 1310.17,604.05 1313.89,602.61 1317.61,601.16 1321.33,599.70 1325.06,598.23 1328.78,596.76 1332.50,595.29 1336.22,593.81 1339.94,592.32 1343.67,590.82 1347.39,589.32 1351.11,587.82 1354.83,586.30 1358.56,584.78 1362.28,583.26 1366.00,581.72 1369.72,580.19 1373.44,578.64 1377.17,577.09 1380.89,575.53 1384.61,573.97 1388.33,572.40 1392.06,570.82 1395.78,569.23 1399.50,567.64 1403.22,566.05 1406.94,564.44 1410.67,562.83 1414.39,561.21 1418.11,559.59 1421.83,557.96 1425.56,556.32 1429.28,554.68 1433.00,553.03 1436.72,551.37 1440.44,549.70 1444.17,548.03 1447.89,546.35 1451.61,544.67 1455.33,542.97 1459.06,541.27 1462.78,539.56 1466.50,537.85 1470.22,536.13 1473.94,534.40 1477.67,532.66 1481.39,530.92 1485.11,529.17 1488.83,527.41 1492.56,525.65 1496.28,523.88 1500.00,522.10 1500.00,711.00 1496.28,711.40 1492.56,711.80 1488.83,712.20 1485.11,712.60 1481.39,713.00 1477.67,713.40 1473.94,713.80 1470.22,714.20 1466.50,714.60 1462.78,715.00 1459.06,715.40 1455.33,715.80 1451.61,716.20 1447.89,716.60 1444.17,717.00 1440.44,717.40 1436.72,717.80 1433.00,718.20 1429.28,718.60 1425.56,719.00 1421.83,719.40 1418.11,719.80 1414.39,720.20 1410.67,720.60 1406.94,721.00 1403.22,721.40 1399.50,721.80 1395.78,722.20 1392.06,722.60 1388.33,723.00 1384.61,723.40 1380.89,723.80 1377.17,724.20 1373.44,724.60 1369.72,725.00 1366.00,725.40 1362.28,725.80 1358.56,726.20 1354.83,726.60 1351.11,727.00 1347.39,727.40 1343.67,727.80 1339.94,728.20 1336.22,728.60 1332.50,729.00 1328.78,729.40 1325.06,729.80 1321.33,730.20 1317.61,730.60 1313.89,731.00 1310.17,731.40 1306.44,731.80 1302.72,732.20 1299.00,732.60 1295.28,733.00 1291.56,733.40 1287.83,733.80 1284.11,734.20 1280.39,734.60 1276.67,735.00 1272.94,735.40 1269.22,735.80 1265.50,736.20 1261.78,736.60 1258.06,737.00 1254.33,737.40 1250.61,737.80 1246.89,738.20 1243.17,738.60 1239.44,739.00 1235.72,739.40 1232.00,739.80 1228.28,740.20 1224.56,740.60 1220.83,741.00 1217.11,741.40 1213.39,741.80 1209.67,742.20 1205.94,742.60 1202.22,743.00 1198.50,743.40 1194.78,743.80 1191.06,744.20 1187.33,744.60 1183.61,745.00 1179.89,745.40 1176.17,745.80 1172.44,746.20 1168.72,746.60 1165.00,747.00 1161.28,747.40 1157.56,747.80 1153.83,748.20 1150.11,748.60 1146.39,749.00 1142.67,749.40 1138.94,749.80 1135.22,750.20 1131.50,750.60 1127.78,751.00 1124.06,751.40 1120.33,751.80 1116.61,752.20 1112.89,752.60 1109.17,753.00 1105.44,753.40 1101.72,753.80 1098.00,754.20 1094.28,754.60 1090.56,755.00 1086.83,755.40 1083.11,755.80 1079.39,756.20 1075.67,756.60 1071.94,757.00 1068.22,757.40 1064.50,757.80 1060.78,758.20 1057.06,758.60 1053.33,759.00 1049.61,759.40 1045.89,759.80 1042.17,760.20 1038.44,760.60 1034.72,761.00 1031.00,761.40 1027.28,761.80 1023.56,762.20 1019.83,762.60 1016.11,763.00 1012.39,763.40 1008.67,763.80 1004.94,764.20 1001.22,764.60 997.50,765.00 993.78,765.40 990.06,765.80 986.33,766.20 982.61,766.60 978.89,767.00 975.17,767.40 971.44,767.80 967.72,768.20 964.00,768.60 960.28,769.00 956.56,769.40 952.83,769.80 949.11,770.20 945.39,770.60 941.67,771.00 937.94,771.40 934.22,771.80 930.50,772.20 926.78,772.60 923.06,773.00 919.33,773.40 915.61,773.80 911.89,774.20 908.17,774.60 904.44,775.00 900.72,775.40 897.00,775.80 893.28,776.20 889.56,776.60 885.83,777.00 882.11,777.40 878.39,777.80 874.67,778.20 870.94,778.60 867.22,779.00 863.50,779.40 859.78,779.80 856.06,780.20 852.33,780.60 848.61,781.00 844.89,781.40 841.17,781.80 837.44,782.20 833.72,782.60 830.00,783.00 826.28,783.40 822.56,783.80 818.83,784.20 815.11,784.60 811.39,785.00 807.67,785.40 803.94,785.80 800.22,786.20 796.50,786.60 792.78,787.00 789.06,787.40 785.33,787.80 781.61,788.20 777.89,788.60 774.17,789.00 770.44,789.40 766.72,789.80 763.00,790.20 759.28,790.60 755.56,791.00 751.83,791.40 748.11,791.80 744.39,792.20 740.67,792.60 736.94,793.00 733.22,793.40 729.50,793.80 725.78,794.20 722.06,794.60 718.33,795.00 714.61,795.40 710.89,795.80 707.17,796.20 703.44,796.60 699.72,797.00 696.00,797.40 692.28,797.80 688.56,798.20 684.83,798.60 681.11,799.00 677.39,799.40 673.67,799.80 669.94,800.20 666.22,800.60 662.50,801.00 658.78,801.40 655.06,801.80 651.33,802.20 647.61,802.60 643.89,803.00 640.17,803.40 636.44,803.80 632.72,804.20 629.00,804.60 625.28,805.00 621.56,805.40 617.83,805.80 614.11,806.20 610.39,806.60 606.67,807.00 602.94,807.40 599.22,807.80 595.50,808.20 591.78,808.60 588.06,809.00 584.33,809.40 580.61,809.80 576.89,810.20 573.17,810.60 569.44,811.00 565.72,811.40 562.00,811.80 558.28,812.20 554.56,812.60 550.83,813.00 547.11,813.40 543.39,813.80 539.67,814.20 535.94,814.60 532.22,815.00 528.50,815.40 524.78,815.80 521.06,816.20 517.33,816.60 513.61,817.00 509.89,817.40 506.17,817.80 502.44,818.20 498.72,818.60 495.00,819.00 491.28,819.40 487.56,819.80 483.83,820.20 480.11,820.60 476.39,821.00 472.67,821.40 468.94,821.80 465.22,822.20 461.50,822.60 457.78,823.00 454.06,823.40 450.33,823.80 446.61,824.20 442.89,824.60 439.17,825.00 435.44,825.40 431.72,825.80 428.00,826.20 424.28,826.60 420.56,827.00 416.83,827.40 413.11,827.80 409.39,828.20 405.67,828.60 401.94,829.00 398.22,829.40 394.50,829.80 390.78,830.20 387.06,830.60 383.33,831.00 379.61,831.40 375.89,831.80 372.17,832.20 368.44,832.60 364.72,833.00 361.00,833.40 357.28,833.80 353.56,834.20 349.83,834.60 346.11,835.00 342.39,835.40 338.67,835.80 334.94,836.20 331.22,836.60 327.50,837.00 323.78,837.40 320.06,837.80 316.33,838.20 312.61,838.60 308.89,839.00 305.17,839.40 301.44,839.80 297.72,840.20 294.00,840.60 290.28,841.00 286.56,841.40 282.83,841.80 279.11,842.20 275.39,842.60 271.67,843.00 267.94,843.40 264.22,843.80 260.50,844.20 256.78,844.60 253.06,845.00 249.33,845.40 245.61,845.80 241.89,846.20 238.17,846.60 234.44,847.00 230.72,847.40 227.00,847.80 223.28,848.20 219.56,848.60 215.83,849.00 212.11,849.40 208.39,849.80 204.67,850.20 200.94,850.60 197.22,851.00 193.50,851.40 189.78,851.80 186.06,852.20 182.33,852.60 178.61,853.00 174.89,853.40 171.17,853.80 167.44,854.20 163.72,854.60 160.00,855.00" fill="#91DAC7"/>
<polyline points="160.00,855.00 163.72,854.60 167.44,854.20 171.17,853.79 174.89,853.39 178.61,852.98 182.33,852.57 186.06,852.16 189.78,851.75 193.50,851.34 197.22,850.92 200.94,850.51 204.67,850.09 208.39,849.67 212.11,849.25 215.83,848.82 219.56,848.40 223.28,847.97 227.00,847.54 230.72,847.11 234.44,846.68 238.17,846.24 241.89,845.80 245.61,845.37 249.33,844.93 253.06,844.48 256.78,844.04 260.50,843.59 264.22,843.15 267.94,842.70 271.67,842.25 275.39,841.79 279.11,841.34 282.83,840.88 286.56,840.42 290.28,839.96 294.00,839.50 297.72,839.03 301.44,838.57 305.17,838.10 308.89,837.63 312.61,837.16 316.33,836.68 320.06,836.21 323.78,835.73 327.50,835.25 331.22,834.76 334.94,834.28 338.67,833.79 342.39,833.31 346.11,832.82 349.83,832.32 353.56,831.83 357.28,831.33 361.00,830.83 364.72,830.33 368.44,829.83 372.17,829.32 375.89,828.82 379.61,828.31 383.33,827.80 387.06,827.28 390.78,826.77 394.50,826.25 398.22,825.73 401.94,825.21 405.67,824.69 409.39,824.16 413.11,823.63 416.83,823.10 420.56,822.57 424.28,822.03 428.00,821.49 431.72,820.95 435.44,820.41 439.17,819.87 442.89,819.32 446.61,818.77 450.33,818.22 454.06,817.67 457.78,817.11 461.50,816.56 465.22,816.00 468.94,815.43 472.67,814.87 476.39,814.30 480.11,813.73 483.83,813.16 487.56,812.59 491.28,812.01 495.00,811.43 498.72,810.85 502.44,810.26 506.17,809.68 509.89,809.09 513.61,808.50 517.33,807.90 521.06,807.31 524.78,806.71 528.50,806.11 532.22,805.50 535.94,804.90 539.67,804.29 543.39,803.68 547.11,803.06 550.83,802.45 554.56,801.83 558.28,801.21 562.00,800.58 565.72,799.96 569.44,799.33 573.17,798.69 576.89,798.06 580.61,797.42 584.33,796.78 588.06,796.14 591.78,795.50 595.50,794.85 599.22,794.20 602.94,793.54 606.67,792.89 610.39,792.23 614.11,791.57 617.83,790.90 621.56,790.24 625.28,789.57 629.00,788.89 632.72,788.22 636.44,787.54 640.17,786.86 643.89,786.17 647.61,785.49 651.33,784.80 655.06,784.11 658.78,783.41 662.50,782.71 666.22,782.01 669.94,781.31 673.67,780.60 677.39,779.89 681.11,779.18 684.83,778.46 688.56,777.74 692.28,777.02 696.00,776.29 699.72,775.57 703.44,774.84 707.17,774.10 710.89,773.36 714.61,772.62 718.33,771.88 722.06,771.13 725.78,770.39 729.50,769.63 733.22,768.88 736.94,768.12 740.67,767.36 744.39,766.59 748.11,765.82 751.83,765.05 755.56,764.28 759.28,763.50 763.00,762.72 766.72,761.93 770.44,761.14 774.17,760.35 777.89,759.56 781.61,758.76 785.33,757.96 789.06,757.16 792.78,756.35 796.50,755.54 800.22,754.72 803.94,753.91 807.67,753.08 811.39,752.26 815.11,751.43 818.83,750.60 822.56,749.76 826.28,748.93 830.00,748.08 833.72,747.24 837.44,746.39 841.17,745.54 844.89,744.68 848.61,743.82 852.33,742.96 856.06,742.09 859.78,741.22 863.50,740.35 867.22,739.47 870.94,738.59 874.67,737.70 878.39,736.81 882.11,735.92 885.83,735.03 889.56,734.13 893.28,733.22 897.00,732.31 900.72,731.40 904.44,730.49 908.17,729.57 911.89,728.65 915.61,727.72 919.33,726.79 923.06,725.86 926.78,724.92 930.50,723.98 934.22,723.03 937.94,722.08 941.67,721.13 945.39,720.17 949.11,719.21 952.83,718.24 956.56,717.27 960.28,716.30 964.00,715.32 967.72,714.34 971.44,713.35 975.17,712.36 978.89,711.37 982.61,710.37 986.33,709.37 990.06,708.36 993.78,707.35 997.50,706.33 1001.22,705.31 1004.94,704.29 1008.67,703.26 1012.39,702.23 1016.11,701.19 1019.83,700.15 1023.56,699.11 1027.28,698.06 1031.00,697.00 1034.72,695.94 1038.44,694.88 1042.17,693.81 1045.89,692.74 1049.61,691.67 1053.33,690.59 1057.06,689.50 1060.78,688.41 1064.50,687.32 1068.22,686.22 1071.94,685.12 1075.67,684.01 1079.39,682.90 1083.11,681.78 1086.83,680.66 1090.56,679.53 1094.28,678.40 1098.00,677.26 1101.72,676.12 1105.44,674.98 1109.17,673.83 1112.89,672.67 1116.61,671.51 1120.33,670.35 1124.06,669.18 1127.78,668.00 1131.50,666.83 1135.22,665.64 1138.94,664.45 1142.67,663.26 1146.39,662.06 1150.11,660.86 1153.83,659.65 1157.56,658.43 1161.28,657.21 1165.00,655.99 1168.72,654.76 1172.44,653.53 1176.17,652.29 1179.89,651.04 1183.61,649.79 1187.33,648.54 1191.06,647.28 1194.78,646.01 1198.50,644.74 1202.22,643.46 1205.94,642.18 1209.67,640.90 1213.39,639.60 1217.11,638.31 1220.83,637.00 1224.56,635.70 1228.28,634.38 1232.00,633.06 1235.72,631.74 1239.44,630.41 1243.17,629.07 1246.89,627.73 1250.61,626.38 1254.33,625.03 1258.06,623.67 1261.78,622.31 1265.50,620.94 1269.22,619.56 1272.94,618.18 1276.67,616.80 1280.39,615.40 1284.11,614.01 1287.83,612.60 1291.56,611.19 1295.28,609.78 1299.00,608.35 1302.72,606.93 1306.44,605.49 1310.17,604.05 1313.89,602.61 1317.61,601.16 1321.33,599.70 1325.06,598.23 1328.78,596.76 1332.50,595.29 1336.22,593.81 1339.94,592.32 1343.67,590.82 1347.39,589.32 1351.11,587.82 1354.83,586.30 1358.56,584.78 1362.28,583.26 1366.00,581.72 1369.72,580.19 1373.44,578.64 1377.17,577.09 1380.89,575.53 1384.61,573.97 1388.33,572.40 1392.06,570.82 1395.78,569.23 1399.50,567.64 1403.22,566.05 1406.94,564.44 1410.67,562.83 1414.39,561.21 1418.11,559.59 1421.83,557.96 1425.56,556.32 1429.28,554.68 1433.00,553.03 1436.72,551.37 1440.44,549.70 1444.17,548.03 1447.89,546.35 1451.61,544.67 1455.33,542.97 1459.06,541.27 1462.78,539.56 1466.50,537.85 1470.22,536.13 1473.94,534.40 1477.67,532.66 1481.39,530.92 1485.11,529.17 1488.83,527.41 1492.56,525.65 1496.28,523.88 1500.00,522.10" fill="none" stroke="#12856E" stroke-width="5"/>
<polyline points="160.00,855.00 163.72,854.60 167.44,854.20 171.17,853.80 174.89,853.40 178.61,853.00 182.33,852.60 186.06,852.20 189.78,851.80 193.50,851.40 197.22,851.00 200.94,850.60 204.67,850.20 208.39,849.80 212.11,849.40 215.83,849.00 219.56,848.60 223.28,848.20 227.00,847.80 230.72,847.40 234.44,847.00 238.17,846.60 241.89,846.20 245.61,845.80 249.33,845.40 253.06,845.00 256.78,844.60 260.50,844.20 264.22,843.80 267.94,843.40 271.67,843.00 275.39,842.60 279.11,842.20 282.83,841.80 286.56,841.40 290.28,841.00 294.00,840.60 297.72,840.20 301.44,839.80 305.17,839.40 308.89,839.00 312.61,838.60 316.33,838.20 320.06,837.80 323.78,837.40 327.50,837.00 331.22,836.60 334.94,836.20 338.67,835.80 342.39,835.40 346.11,835.00 349.83,834.60 353.56,834.20 357.28,833.80 361.00,833.40 364.72,833.00 368.44,832.60 372.17,832.20 375.89,831.80 379.61,831.40 383.33,831.00 387.06,830.60 390.78,830.20 394.50,829.80 398.22,829.40 401.94,829.00 405.67,828.60 409.39,828.20 413.11,827.80 416.83,827.40 420.56,827.00 424.28,826.60 428.00,826.20 431.72,825.80 435.44,825.40 439.17,825.00 442.89,824.60 446.61,824.20 450.33,823.80 454.06,823.40 457.78,823.00 461.50,822.60 465.22,822.20 468.94,821.80 472.67,821.40 476.39,821.00 480.11,820.60 483.83,820.20 487.56,819.80 491.28,819.40 495.00,819.00 498.72,818.60 502.44,818.20 506.17,817.80 509.89,817.40 513.61,817.00 517.33,816.60 521.06,816.20 524.78,815.80 528.50,815.40 532.22,815.00 535.94,814.60 539.67,814.20 543.39,813.80 547.11,813.40 550.83,813.00 554.56,812.60 558.28,812.20 562.00,811.80 565.72,811.40 569.44,811.00 573.17,810.60 576.89,810.20 580.61,809.80 584.33,809.40 588.06,809.00 591.78,808.60 595.50,808.20 599.22,807.80 602.94,807.40 606.67,807.00 610.39,806.60 614.11,806.20 617.83,805.80 621.56,805.40 625.28,805.00 629.00,804.60 632.72,804.20 636.44,803.80 640.17,803.40 643.89,803.00 647.61,802.60 651.33,802.20 655.06,801.80 658.78,801.40 662.50,801.00 666.22,800.60 669.94,800.20 673.67,799.80 677.39,799.40 681.11,799.00 684.83,798.60 688.56,798.20 692.28,797.80 696.00,797.40 699.72,797.00 703.44,796.60 707.17,796.20 710.89,795.80 714.61,795.40 718.33,795.00 722.06,794.60 725.78,794.20 729.50,793.80 733.22,793.40 736.94,793.00 740.67,792.60 744.39,792.20 748.11,791.80 751.83,791.40 755.56,791.00 759.28,790.60 763.00,790.20 766.72,789.80 770.44,789.40 774.17,789.00 777.89,788.60 781.61,788.20 785.33,787.80 789.06,787.40 792.78,787.00 796.50,786.60 800.22,786.20 803.94,785.80 807.67,785.40 811.39,785.00 815.11,784.60 818.83,784.20 822.56,783.80 826.28,783.40 830.00,783.00 833.72,782.60 837.44,782.20 841.17,781.80 844.89,781.40 848.61,781.00 852.33,780.60 856.06,780.20 859.78,779.80 863.50,779.40 867.22,779.00 870.94,778.60 874.67,778.20 878.39,777.80 882.11,777.40 885.83,777.00 889.56,776.60 893.28,776.20 897.00,775.80 900.72,775.40 904.44,775.00 908.17,774.60 911.89,774.20 915.61,773.80 919.33,773.40 923.06,773.00 926.78,772.60 930.50,772.20 934.22,771.80 937.94,771.40 941.67,771.00 945.39,770.60 949.11,770.20 952.83,769.80 956.56,769.40 960.28,769.00 964.00,768.60 967.72,768.20 971.44,767.80 975.17,767.40 978.89,767.00 982.61,766.60 986.33,766.20 990.06,765.80 993.78,765.40 997.50,765.00 1001.22,764.60 1004.94,764.20 1008.67,763.80 1012.39,763.40 1016.11,763.00 1019.83,762.60 1023.56,762.20 1027.28,761.80 1031.00,761.40 1034.72,761.00 1038.44,760.60 1042.17,760.20 1045.89,759.80 1049.61,759.40 1053.33,759.00 1057.06,758.60 1060.78,758.20 1064.50,757.80 1068.22,757.40 1071.94,757.00 1075.67,756.60 1079.39,756.20 1083.11,755.80 1086.83,755.40 1090.56,755.00 1094.28,754.60 1098.00,754.20 1101.72,753.80 1105.44,753.40 1109.17,753.00 1112.89,752.60 1116.61,752.20 1120.33,751.80 1124.06,751.40 1127.78,751.00 1131.50,750.60 1135.22,750.20 1138.94,749.80 1142.67,749.40 1146.39,749.00 1150.11,748.60 1153.83,748.20 1157.56,747.80 1161.28,747.40 1165.00,747.00 1168.72,746.60 1172.44,746.20 1176.17,745.80 1179.89,745.40 1183.61,745.00 1187.33,744.60 1191.06,744.20 1194.78,743.80 1198.50,743.40 1202.22,743.00 1205.94,742.60 1209.67,742.20 1213.39,741.80 1217.11,741.40 1220.83,741.00 1224.56,740.60 1228.28,740.20 1232.00,739.80 1235.72,739.40 1239.44,739.00 1243.17,738.60 1246.89,738.20 1250.61,737.80 1254.33,737.40 1258.06,737.00 1261.78,736.60 1265.50,736.20 1269.22,735.80 1272.94,735.40 1276.67,735.00 1280.39,734.60 1284.11,734.20 1287.83,733.80 1291.56,733.40 1295.28,733.00 1299.00,732.60 1302.72,732.20 1306.44,731.80 1310.17,731.40 1313.89,731.00 1317.61,730.60 1321.33,730.20 1325.06,729.80 1328.78,729.40 1332.50,729.00 1336.22,728.60 1339.94,728.20 1343.67,727.80 1347.39,727.40 1351.11,727.00 1354.83,726.60 1358.56,726.20 1362.28,725.80 1366.00,725.40 1369.72,725.00 1373.44,724.60 1377.17,724.20 1380.89,723.80 1384.61,723.40 1388.33,723.00 1392.06,722.60 1395.78,722.20 1399.50,721.80 1403.22,721.40 1406.94,721.00 1410.67,720.60 1414.39,720.20 1418.11,719.80 1421.83,719.40 1425.56,719.00 1429.28,718.60 1433.00,718.20 1436.72,717.80 1440.44,717.40 1444.17,717.00 1447.89,716.60 1451.61,716.20 1455.33,715.80 1459.06,715.40 1462.78,715.00 1466.50,714.60 1470.22,714.20 1473.94,713.80 1477.67,713.40 1481.39,713.00 1485.11,712.60 1488.83,712.20 1492.56,711.80 1496.28,711.40 1500.00,711.00" fill="none" stroke="#6489BB" stroke-width="3"/>
<text x="160.0" y="891" font-size="22" fill="#62748B" font-weight="400" text-anchor="middle">0年</text>
<text x="606.6666666666667" y="891" font-size="22" fill="#62748B" font-weight="400" text-anchor="middle">10年</text>
<circle cx="606.6666666666667" cy="792.8870882217332" r="7" fill="#12856E" stroke="white" stroke-width="3"/>
<text x="1053.3333333333335" y="891" font-size="22" fill="#62748B" font-weight="400" text-anchor="middle">20年</text>
<circle cx="1053.3333333333335" cy="690.5865325937291" r="7" fill="#12856E" stroke="white" stroke-width="3"/>
<text x="1500.0" y="891" font-size="22" fill="#62748B" font-weight="400" text-anchor="middle">30年</text>
<circle cx="1500.0" cy="522.0965458554135" r="7" fill="#12856E" stroke="white" stroke-width="3"/>
<text x="1240" y="691" font-size="27" fill="#076653" font-weight="700" text-anchor="start">運用で増えた分</text>
<text x="1090" y="801" font-size="27" fill="#345981" font-weight="700" text-anchor="start">積み立てた元本</text>
<text x="90" y="941" font-size="29" fill="#24354B" font-weight="700" text-anchor="start">30年後には、運用で増えた分が積立元本を上回る計算に。</text>
<text x="90" y="986" font-size="19" fill="#62748B" font-weight="400" text-anchor="start">計算条件：月末に3万円積立・月利＝5%÷12・税金と手数料は考慮しない。金額は万円単位で四捨五入。</text>
<text x="90" y="1017" font-size="19" fill="#62748B" font-weight="400" text-anchor="start">一定の利率を仮定した計算例です。実際の運用には値動きがあり、この結果や元本は保証されません。</text>
</g></svg>